<svg width="50" height="50" viewBox="0 0 50 50" fill="none" xmlns="http://www.w3.org/2000/svg">
<rect width="50" height="50" fill="white"/>
<path fill-rule="evenodd" clip-rule="evenodd" d="M16.4212 15C16.2361 18.811 13.5285 21.8348 10.2156 21.8348C7.86674 21.8348 5.82215 20.3147 4.76518 18.0717C4.35862 20.1249 4 22.1455 4 22.885C4 24.5921 5.91144 34.266 5.91144 34.266H34.9652C34.9652 34.266 41.496 33.7512 43.7685 31.4208C46.0409 29.0904 44.9047 24.0231 44.9047 24.0231C32.9248 24.9454 28.7569 22.2131 24.0798 19.1471C21.9124 17.7262 19.6355 16.2337 16.4212 15Z" fill="#312F32"/>
<path d="M6.7523 31.4118H30.9113V32.8389H7.05811L6.7523 31.4118Z" fill="#C4C4C4"/>
</svg>
