<svg width="50" height="50" viewBox="0 0 50 50" fill="none" xmlns="http://www.w3.org/2000/svg">
<rect width="50" height="50" fill="white"/>
<path d="M8 14.1028L10.6212 11.7757L13.5046 11V18.7569L8 20.3083V14.1028Z" fill="#312F32"/>
<path d="M42.2508 14.1028L39.6295 11.7757L36.7462 11V18.7569L42.2508 20.3083V14.1028Z" fill="#312F32"/>
<path d="M41.5939 18.3982L37.777 17.2056L37.777 18.2171L41.5939 19.4636L41.5939 18.3982Z" fill="#DBDAD8"/>
<path fill-rule="evenodd" clip-rule="evenodd" d="M13.5046 11H20.2399C20.3816 13.4387 22.5147 15.3749 25.1254 15.3749C27.7361 15.3749 29.8692 13.4387 30.0109 11H36.8379V39.9592H25.4312L13.5046 35.5636V11Z" fill="#312F32"/>
<path d="M25.5237 37.7747L14.6353 33.7537L15.0033 34.9469L25.8917 38.9679L25.5237 37.7747Z" fill="#DBDAD8"/>
</svg>
