<svg width="50" height="50" viewBox="0 0 50 50" fill="none" xmlns="http://www.w3.org/2000/svg">
<rect width="50" height="50" fill="white"/>
<path fill-rule="evenodd" clip-rule="evenodd" d="M12 16.6953C14.3645 16.6953 16.2814 15.0409 16.2814 13H23.0092V37.2835L12 33.3242L12 16.6953C12 16.6953 12 16.6953 12 16.6953Z" fill="#312F32"/>
<path fill-rule="evenodd" clip-rule="evenodd" d="M32.7951 13H26.0673V37.2835H37.0765V16.6953C34.7119 16.6953 32.7951 15.0409 32.7951 13Z" fill="#312F32"/>
<path fill-rule="evenodd" clip-rule="evenodd" d="M30.3505 13.528C30.3493 13.5696 30.3486 13.6113 30.3486 13.6532C30.3486 16.2771 32.8131 18.4043 35.8532 18.4043C36.1115 18.4043 36.3656 18.3889 36.6144 18.3592L35.258 17.3131C33.5296 17.1056 32.1314 16.0075 31.7056 14.5731L30.3505 13.528Z" fill="#DBDAD8"/>
<rect x="20.5627" y="13" width="10.3976" height="17.4208" fill="#312F32"/>
<path d="M13.0879 31.7768L21.6506 34.9442L21.6506 36L13.0879 32.8326L13.0879 31.7768Z" fill="#DBDAD8"/>
</svg>
